# Blender v2.78 (sub 0) OBJ File: 'cube.blend'
# www.blender.org
o back
v -10.000000 -10.000000 10.000000
v -10.000000 10.000000 10.000000
v 10.000000 -10.000000 10.000000
v 10.000000 10.000000 10.000000
vt 0.0000 0.0000
vt 1.0000 0.0000
vt 1.0000 1.0000
vt 0.0000 1.0000
vn 0.0000 0.0000 -1.0000
s off
f 3/1/1 1/2/1 2/3/1 4/4/1
o front
v -10.000000 -10.000000 -10.000000
v -10.000000 10.000000 -10.000000
v 10.000000 -10.000000 -10.000000
v 10.000000 10.000000 -10.000000
vt 0.0000 0.0000
vt 1.0000 0.0000
vt 1.0000 1.0000
vt 0.0000 1.0000
vn 0.0000 0.0000 1.0000
s off
f 5/5/2 7/6/2 8/7/2 6/8/2
o left
v -10.000000 -10.000000 10.000000
v -10.000000 10.000000 10.000000
v -10.000000 -10.000000 -10.000000
v -10.000000 10.000000 -10.000000
vt 0.0000 0.0000
vt 1.0000 0.0000
vt 1.0000 1.0000
vt 0.0000 1.0000
vn 1.0000 0.0000 0.0000
s off
f 9/9/3 11/10/3 12/11/3 10/12/3
o up
v -10.000000 10.000000 10.000000
v -10.000000 10.000000 -10.000000
v 10.000000 10.000000 10.000000
v 10.000000 10.000000 -10.000000
vt 0.0000 0.0000
vt 1.0000 0.0000
vt 1.0000 1.0000
vt 0.0000 1.0000
vn 0.0000 -1.0000 0.0000
s off
f 16/13/4 15/14/4 13/15/4 14/16/4
o right
v 10.000000 -10.000000 10.000000
v 10.000000 10.000000 10.000000
v 10.000000 -10.000000 -10.000000
v 10.000000 10.000000 -10.000000
vt 0.0000 0.0000
vt 1.0000 0.0000
vt 1.0000 1.0000
vt 0.0000 1.0000
vn -1.0000 0.0000 0.0000
s off
f 19/17/5 17/18/5 18/19/5 20/20/5
o down
v -10.000000 -10.000000 10.000000
v -10.000000 -10.000000 -10.000000
v 10.000000 -10.000000 10.000000
v 10.000000 -10.000000 -10.000000
vt 0.0000 0.0000
vt 1.0000 0.0000
vt 1.0000 1.0000
vt 0.0000 1.0000
vn 0.0000 1.0000 0.0000
s off
f 22/21/6 21/22/6 23/23/6 24/24/6
